<?xml version="1.0" encoding="UTF-8" standalone="no"?>
<svg width="32px" height="32px" viewBox="0 0 32 32" version="1.1" xmlns="http://www.w3.org/2000/svg" xmlns:xlink="http://www.w3.org/1999/xlink">
    <!-- Generator: Sketch 41.2 (35397) - http://www.bohemiancoding.com/sketch -->
    <title>Fill 9</title>
    <desc>Created with Sketch.</desc>
    <defs></defs>
    <g id="Page-1" stroke="none" stroke-width="1" fill="none" fill-rule="evenodd">
        <g id="Group" transform="translate(-157.000000, 0.000000)" fill="#F53A33">
            <path d="M183.5787,7.3785 C183.2907,7.7685 181.0007,10.7045 175.9477,12.7675 C176.2657,13.4175 176.5707,14.0805 176.8537,14.7465 C176.9547,14.9825 177.0527,15.2175 177.1487,15.4515 C181.6957,14.8805 186.2147,15.7965 186.6647,15.8915 C186.6347,12.6665 185.4817,9.7045 183.5787,7.3785 M169.7977,2.7345 C170.1747,3.2405 172.6577,6.6205 174.8967,10.7345 C179.7567,8.9135 181.8137,6.1485 182.0597,5.7985 C179.6457,3.6565 176.4727,2.3545 172.9997,2.3545 C171.8977,2.3545 170.8247,2.4865 169.7977,2.7345 M159.6227,13.2215 C160.2337,13.2295 165.8637,13.2545 172.2567,11.5565 C169.9927,7.5315 167.5497,4.1465 167.1897,3.6525 C163.3667,5.4565 160.5087,8.9805 159.6227,13.2215 M162.8467,25.1585 C163.1567,24.6285 166.9067,18.4185 173.9557,16.1405 C174.1337,16.0825 174.3137,16.0285 174.4937,15.9775 C174.1507,15.2015 173.7777,14.4245 173.3857,13.6585 C166.5607,15.7005 159.9387,15.6155 159.3407,15.6035 C159.3367,15.7425 159.3337,15.8815 159.3337,16.0205 C159.3337,19.5305 160.6637,22.7355 162.8467,25.1585 M178.3387,28.6015 C178.1347,27.4025 177.3417,23.2235 175.4227,18.2375 L175.3327,18.2675 C167.6247,20.9535 164.8577,26.2995 164.6117,26.8025 C166.9287,28.6095 169.8407,29.6875 172.9997,29.6875 C174.8927,29.6875 176.6977,29.3005 178.3387,28.6015 M186.4937,18.1905 C186.0257,18.0425 182.2637,16.9205 177.9807,17.6055 C179.7687,22.5175 180.4957,26.5185 180.6357,27.3495 C183.7017,25.2765 185.8847,21.9925 186.4937,18.1905 M172.9997,32.0005 C164.1777,32.0005 156.9997,24.8225 156.9997,16.0005 C156.9997,7.1775 164.1777,0.0005 172.9997,0.0005 C181.8227,0.0005 188.9997,7.1775 188.9997,16.0005 C188.9997,24.8225 181.8227,32.0005 172.9997,32.0005" id="Fill-9"></path>
        </g>
    </g>
</svg>