<?xml version="1.0" encoding="UTF-8"?>
<svg width="418px" height="446px" viewBox="0 0 418 446" version="1.1" xmlns="http://www.w3.org/2000/svg" xmlns:xlink="http://www.w3.org/1999/xlink">
    <!-- Generator: Sketch 51.2 (57519) - http://www.bohemiancoding.com/sketch -->
    <title>icon</title>
    <desc>Created with Sketch.</desc>
    <defs></defs>
    <g id="Page-2" stroke="none" stroke-width="1" fill="none" fill-rule="evenodd">
        <g id="Desktop-HD" transform="translate(-520.000000, -114.000000)">
            <g id="icon" transform="translate(520.000000, 114.000000)">
                <path d="M418,377.967195 L418,388 L213,388 L213,412.263866 C220.958033,413.680799 227,420.634811 227,429 C227,438.388841 219.388841,446 210,446 C200.611159,446 193,438.388841 193,429 C193,421.351269 198.051329,414.882339 205,412.747196 L205,388 L0,388 L0,377.967195 C7.81803182,377.452609 14,370.948243 14,363 C14,355.051757 7.81803182,348.547391 2.30315766e-13,348.032805 L0,337.967195 C7.81803182,337.452609 14,330.948243 14,323 C14,315.051757 7.81803182,308.547391 2.30315766e-13,308.032805 L0,297.967195 C7.81803182,297.452609 14,290.948243 14,283 C14,275.051757 7.81803182,268.547391 2.19935181e-13,268.032805 L0,259.967195 C7.81803182,259.452609 14,252.948243 14,245 C14,237.051757 7.81803182,230.547391 2.34978703e-13,230.032805 L0,219.967195 C7.81803182,219.452609 14,212.948243 14,205 C14,197.051757 7.81803182,190.547391 2.34978703e-13,190.032805 L0,178 L205,178 L205,154.779374 C192.279445,153.163567 182.270781,142.857742 181.112108,130 L118.170136,130 L104.203515,142.575602 C103.177446,143.499478 101.596703,143.416635 100.672827,142.390566 C99.7489499,141.364497 99.8317932,139.783754 100.857862,138.859878 L110.697753,130 L103.170136,130 L89.2035151,142.575602 C88.1774462,143.499478 86.5967031,143.416635 85.6728265,142.390566 C84.7489499,141.364497 84.8317932,139.783754 85.8578621,138.859878 L95.6977529,130 L90.1701356,130 L76.2035151,142.575602 C75.1774462,143.499478 73.5967031,143.416635 72.6728265,142.390566 C71.7489499,141.364497 71.8317932,139.783754 72.8578621,138.859878 L86.590463,126.494988 L71.9965888,115.497715 C70.8939032,114.666782 70.6736044,113.099274 71.5045376,111.996589 C72.3354707,110.893903 73.9029784,110.673604 75.0056639,111.504538 L91.9385057,124.264349 C92.2119241,124.470385 92.4310911,124.721707 92.5934327,125 L97.6065467,125 L84.9965888,115.497715 C83.8939032,114.666782 83.6736044,113.099274 84.5045376,111.996589 C85.3354707,110.893903 86.9029784,110.673604 88.0056639,111.504538 L104.938506,124.264349 C105.211924,124.470385 105.431091,124.721707 105.593433,125 L112.279502,125 L99.5579753,115.413642 C98.4552898,114.582709 98.2349909,113.015201 99.0659241,111.912516 C99.8968572,110.80983 101.464365,110.589531 102.56705,111.420465 L119.499892,124.180276 C119.725587,124.350349 119.914316,124.55128 120.064632,124.772766 C120.091888,124.80037 120.118642,124.828736 120.144867,124.857862 C120.186545,124.90415 120.226173,124.951566 120.263759,125 L181.112108,125 C182.270781,112.142258 192.279445,101.836433 205,100.220626 L205,91.3539842 C203.884183,91.4378454 203.190207,91.0871247 202.918074,90.3018222 C202.308247,88.5420274 203.002222,86.7557401 205,84.9429603 L205,83.2858615 C197.630335,80.6197088 194.57757,79.2866324 195.841704,79.2866324 C197.030866,79.2866324 200.81043,79.4812438 205,78.4116304 L205,74 L213,74 L213,74.4015758 C213.197908,74.2307675 213.393155,74.054043 213.585437,73.8711989 C219.867637,67.8973526 221.520427,57.1971459 220.553142,56.3331157 C219.585858,55.4690855 216.676779,66.6211699 209.784732,70.4762071 C202.892685,74.3312442 194.859665,71.9832869 187.780249,69.8186368 C180.700833,67.6539868 178.494037,58.3880861 170.264,52.0962308 L174.990381,48.3645833 C174.990381,47.2756443 173.414921,46.1847717 170.264,45.0919655 L175.660646,42.5282033 C175.425885,39.8209525 168.532991,34.0529103 168.532991,25.9264595 C174.708852,33.7188925 182.412325,37.7540209 191.643411,38.0318448 C205.490039,38.4485807 204.174738,40.210119 212.626248,35.401564 C218.260588,32.1958606 222.379669,25.6138959 224.98349,15.6556697 L221.926169,7.4799646 C223.964383,5.1763531 226.080456,4.02454735 228.274388,4.02454735 C231.565286,4.02454735 230.501636,0.330475279 232.456941,0.330475279 C233.760477,0.330475279 235.40381,1.56183264 237.38694,4.02454735 C239.848083,4.00941417 241.634778,4.61366788 242.747026,5.8373085 C243.859274,7.06094911 244.087096,8.67296938 243.430493,10.6733693 C246.029968,13.3212531 247.329706,16.1729244 247.329706,19.2283832 C247.329706,23.8115715 251.036473,19.2283832 251.036473,25.9264595 L249.815779,25.9264595 L245.373245,25.9264595 C241.318821,28.0090191 239.567839,30.717836 240.120299,34.0529103 C240.94899,39.0555217 246.795674,52.8826781 240.94899,64.5748317 C235.102307,76.2669853 224.092343,79.2866324 215.649547,82.9893367 C223.118597,84.3972309 226.229911,86.443823 224.98349,89.129113 C223.737069,91.814403 220.218856,91.141007 214.428853,87.1089253 C213.936983,87.4108167 213.460699,87.696652 213,87.9664313 L213,100.366377 C225.241971,102.381433 234.759756,112.481128 235.887892,125 L288.343331,125 L303.961989,113.270064 L347.508371,127.527405 L303.961989,141.686238 L288.166594,130.078981 L288.166594,130 L235.887892,130 C234.759756,142.518872 225.241971,152.618567 213,154.633623 L213,178 L418,178 L418,190.032805 C410.181968,190.547391 404,197.051757 404,205 C404,212.948243 410.181968,219.452609 418,219.967195 L418,230.032805 C410.181968,230.547391 404,237.051757 404,245 C404,252.948243 410.181968,259.452609 418,259.967195 L418,268.032805 C410.181968,268.547391 404,275.051757 404,283 C404,290.948243 410.181968,297.452609 418,297.967195 L418,308.032805 C410.181968,308.547391 404,315.051757 404,323 C404,330.948243 410.181968,337.452609 418,337.967195 L418,348.032805 C410.181968,348.547391 404,355.051757 404,363 C404,370.948243 410.181968,377.452609 418,377.967195 Z M209.510733,119.37208 C204.988961,115.718545 201.219947,115.718545 198.203692,119.37208 C195.187436,123.025614 198.95645,129.282554 209.510733,138.142898 C219.388559,129.163157 222.806473,122.906218 219.764472,119.37208 C216.722472,115.837941 213.304558,115.837941 209.510733,119.37208 Z M238,20 C239.104569,20 240,19.1045695 240,18 C240,16.8954305 239.104569,16 238,16 C236.895431,16 236,16.8954305 236,18 C236,19.1045695 236.895431,20 238,20 Z" id="Combined-Shape" fill="#FF5657"></path>
                <text id="Random" font-family="Baskerville-Bold, Baskerville" font-size="57" font-weight="bold" letter-spacing="0.4453125" fill="#FFFFFF">
                    <tspan x="91.1750488" y="267">Random</tspan>
                </text>
                <text id="Restaurant" font-family="Baskerville-Bold, Baskerville" font-size="57" font-weight="bold" letter-spacing="0.4453125" fill="#FFFFFF">
                    <tspan x="56.0231934" y="337">Restaurant</tspan>
                </text>
                <rect id="Rectangle-5" fill="#FFFFFF" x="33" y="192" width="349" height="8"></rect>
                <rect id="Rectangle-5-Copy" fill="#FFFFFF" x="33" y="366" width="349" height="8"></rect>
            </g>
        </g>
    </g>
</svg>